<?xml version="1.0" encoding="utf-8"?>
<!-- Generator: Adobe Illustrator 19.0.0, SVG Export Plug-In . SVG Version: 6.00 Build 0)  -->
<svg version="1.1" id="レイヤー_1" xmlns="http://www.w3.org/2000/svg" xmlns:xlink="http://www.w3.org/1999/xlink" x="0px"
	 y="0px" viewBox="0 0 72 77" style="enable-background:new 0 0 72 77;" xml:space="preserve">
<style type="text/css">
	.st0{fill:#00CC00;}
</style>
<g>
	<path class="st0" d="M72,16.9c-0.4,1.5-0.5,1.7-0.9,3.3c-5.5,1.1-10.9,2.5-16.5,2.9c-5.9,0.5-7.5,2.4-5.5,8.2
		c1,2.8,2.4,5.7,2.5,8.6c0.5,14.7-4.3,31.6-22.5,36.4c-0.9,0.2-1.9,0.8-3.1,0.8c0,0,0,0,0.3,0l-13,0c-0.3,0-0.4,0-0.4,0
		c-5.4-2.4-9.2-6.3-11.7-11.5C-0.3,62-0.5,58,1,52.3C3.3,46.8,5.6,41.4,7.8,36C13,23,21.2,18.6,34.9,21.4c2.8,0.6,5.5,1.6,8.3,2.5
		c0,0,0.1,0,0.1,0l0.8-1c-1.2-1.3-2.1-3.1-3.6-3.8c-2.7-1.3-5.6-2.1-8.5-2.6C23.9,15,22.3,12.1,26.1,5c0,0,0,0,0,0
		c10-10,5.9-2.3,10,0c0,0,0,0,0,0l11.7,12.1c0,0,0.1,0,0.1,0c0.3-0.2,1-0.5,1.6-1C60,9,62.7,9.1,72,16.9z M29.1,64.9
		c0,0,0.1,0,0.1,0.1c1.1,3.3,3,4.8,7.2,4c4.6-0.9,5.3-3.7,5.9-7.3c0.8-5.1,1.9-10.1,2.9-15.2c0.5-2.6,1-5.1-2.9-5.4
		c-3.3-0.3-6.4-0.7-6.9,4c-0.4,3.8-1.3,7.6-2,11.1c0,0.1-0.1,0.1-0.1,0c-2.4-2.3-4.7-5.8-6.7-5.7c-2.4,0.1-4.7,3.4-7.3,5.6
		c-0.1,0-0.1,0-0.1-0.1c-0.3-3.7-0.4-7.6-0.8-11.4c-0.5-4.8-4.3-3-7-3.1c-2.9-0.1-3.8,1.4-3.2,4.1c1,4.9,1.8,9.8,2.7,14.7
		c1.7,9,1.9,9.3,10.9,8.1C24,68.1,26.2,66.3,29.1,64.9z M23.9,28.5c0.2,1.1,0.1,0.7,0.3,1.9c-2,0.5-4.1,0.8-6,1.7
		c-1.4,0.7-2.4,2.2-3.6,3.4c0,0,0,0.1,0,0.1c1.4,1.2,2.6,3.3,4.1,3.4c3.3,0.3,6.7-0.3,10.3-0.6c0,0,0.1,0,0.1-0.1
		c-0.4-4.8,1.8-10-4-12c-3-1.1-6.3-0.8-9.7,2.4c-0.1,0.1,0,0.2,0.1,0.1C16.3,28.9,20.4,28.7,23.9,28.5z M38.4,25.4l-0.7,0
		c-0.2,0-0.4,0.2-0.4,0.4v12c0,0.2,0.2,0.4,0.4,0.4l0.7,0c0.2,0,0.4-0.2,0.4-0.4v-12C38.9,25.6,38.7,25.4,38.4,25.4z M34.2,25.9
		c-1.2-0.1-0.8-0.1-2-0.2c-1,4.2-1.2,8.4,0.3,12.5c0.9-0.2,0.7-0.1,1.6-0.3C34.2,34.6,34.2,29.8,34.2,25.9z"/>
	<path class="st0" d="M25.6,35.7c-2.3,0.4-4.6,0.9-6.9,1.3c-0.2-0.8-0.4-1.6-0.5-2.5c2.3-0.5,4.5-1.1,6.8-1.6
		C25.2,33.9,25.4,34.8,25.6,35.7z"/>
</g>
</svg>
